{
  "accessors": [
    {
      "bufferView": 1,
      "componentType": 5126,
      "type": "VEC3",
      "count": 480,
      "min": [
        -8,
        -5,
        0
      ],
      "max": [
        6,
        7,
        1
      ]
    },
    {
      "bufferView": 1,
      "componentType": 5126,
      "type": "VEC3",
      "byteOffset": 12,
      "count": 480
    },
    {
      "bufferView": 1,
      "componentType": 5126,
      "type": "VEC2",
      "byteOffset": 24,
      "count": 480
    },
    {
      "bufferView": 2,
      "componentType": 5125,
      "type": "SCALAR",
      "count": 1884
    },
    {
      "bufferView": 3,
      "componentType": 5126,
      "type": "VEC3",
      "count": 870,
      "min": [
        -11,
        -9,
        1
      ],
      "max": [
        8,
        10,
        2
      ]
    },
    {
      "bufferView": 3,
      "componentType": 5126,
      "type": "VEC3",
      "byteOffset": 12,
      "count": 870
    },
    {
      "bufferView": 3,
      "componentType": 5126,
      "type": "VEC2",
      "byteOffset": 24,
      "count": 870
    },
    {
      "bufferView": 4,
      "componentType": 5125,
      "type": "SCALAR",
      "count": 2892
    },
    {
      "bufferView": 5,
      "byteOffset": 0,
      "componentType": 5126,
      "count": 480,
      "type": "VEC2"
    },
    {
      "bufferView": 6,
      "byteOffset": 0,
      "componentType": 5126,
      "count": 870,
      "type": "VEC2"
    }
  ],
  "asset": {
    "generator": "goxel",
    "version": "2.0"
  },
  "bufferViews": [
    {
      "buffer": 0,
      "byteLength": 203
    },
    {
      "buffer": 1,
      "byteLength": 19200,
      "byteStride": 40
    },
    {
      "buffer": 2,
      "byteLength": 7536
    },
    {
      "buffer": 3,
      "byteLength": 34800,
      "byteStride": 40
    },
    {
      "buffer": 4,
      "byteLength": 11568
    },
    {
      "buffer": 0,
      "byteOffset": 204,
      "byteLength": 3840,
      "target": 34962
    },
    {
      "buffer": 0,
      "byteOffset": 4044,
      "byteLength": 6960,
      "target": 34962
    }
  ],
  "buffers": [
    {
      "uri": "data:application/octet-stream;base64,",
      "byteLength": 11004
    },
    {
      "uri": "data:application/octet-stream;base64,",
      "byteLength": 19200
    },
    {
      "uri": "data:application/octet-stream;base64,",
      "byteLength": 7536
    },
    {
      "uri": "data:application/octet-stream;base64,",
      "byteLength": 34800
    },
    {
      "uri": "data:application/octet-stream;base64,",
      "byteLength": 11568
    }
  ],
  "images": [
    {
      "bufferView": 0,
      "mimeType": "image/png"
    }
  ],
  "meshes": [
    {
      "primitives": [
        {
          "indices": 3,
          "material": 0,
          "attributes": {
            "POSITION": 0,
            "NORMAL": 1,
            "TEXCOORD_0": 8
          }
        }
      ]
    },
    {
      "primitives": [
        {
          "indices": 7,
          "material": 0,
          "attributes": {
            "POSITION": 4,
            "NORMAL": 5,
            "TEXCOORD_0": 9
          }
        }
      ]
    }
  ],
  "materials": [
    {
      "name": "Material.1",
      "pbrMetallicRoughness": {
        "baseColorTexture": {
          "index": 0
        },
        "metallicFactor": 0.200000003,
        "roughnessFactor": 0.5
      }
    }
  ],
  "nodes": [
    {
      "children": [
        1,
        2
      ],
      "matrix": [
        1,
        0,
        0,
        0,
        0,
        0,
        -1,
        0,
        0,
        1,
        0,
        0,
        0,
        0,
        0,
        1
      ]
    },
    {
      "mesh": 0,
      "name": "Layer.1"
    },
    {
      "mesh": 1,
      "name": "Layer.2"
    }
  ],
  "scenes": [
    {
      "nodes": [
        0
      ]
    }
  ],
  "textures": [
    {
      "source": 0
    }
  ]
}