{
  "accessors": [
    {
      "bufferView": 1,
      "componentType": 5126,
      "type": "VEC3",
      "count": 1778,
      "min": [
        -12,
        -4,
        0
      ],
      "max": [
        14,
        11,
        5
      ]
    },
    {
      "bufferView": 1,
      "componentType": 5126,
      "type": "VEC3",
      "byteOffset": 12,
      "count": 1778
    },
    {
      "bufferView": 1,
      "componentType": 5126,
      "type": "VEC2",
      "byteOffset": 24,
      "count": 1778
    },
    {
      "bufferView": 2,
      "componentType": 5125,
      "type": "SCALAR",
      "count": 7704
    },
    {
      "bufferView": 3,
      "componentType": 5126,
      "type": "VEC3",
      "count": 120,
      "min": [
        4,
        7,
        4
      ],
      "max": [
        13,
        8,
        5
      ]
    },
    {
      "bufferView": 3,
      "componentType": 5126,
      "type": "VEC3",
      "byteOffset": 12,
      "count": 120
    },
    {
      "bufferView": 3,
      "componentType": 5126,
      "type": "VEC2",
      "byteOffset": 24,
      "count": 120
    },
    {
      "bufferView": 4,
      "componentType": 5125,
      "type": "SCALAR",
      "count": 180
    },
    {
      "bufferView": 5,
      "componentType": 5126,
      "type": "VEC3",
      "count": 120,
      "min": [
        4,
        5,
        4
      ],
      "max": [
        13,
        6,
        5
      ]
    },
    {
      "bufferView": 5,
      "componentType": 5126,
      "type": "VEC3",
      "byteOffset": 12,
      "count": 120
    },
    {
      "bufferView": 5,
      "componentType": 5126,
      "type": "VEC2",
      "byteOffset": 24,
      "count": 120
    },
    {
      "bufferView": 6,
      "componentType": 5125,
      "type": "SCALAR",
      "count": 180
    },
    {
      "bufferView": 7,
      "componentType": 5126,
      "type": "VEC3",
      "count": 120,
      "min": [
        4,
        3,
        4
      ],
      "max": [
        13,
        4,
        5
      ]
    },
    {
      "bufferView": 7,
      "componentType": 5126,
      "type": "VEC3",
      "byteOffset": 12,
      "count": 120
    },
    {
      "bufferView": 7,
      "componentType": 5126,
      "type": "VEC2",
      "byteOffset": 24,
      "count": 120
    },
    {
      "bufferView": 8,
      "componentType": 5125,
      "type": "SCALAR",
      "count": 180
    },
    {
      "bufferView": 9,
      "componentType": 5126,
      "type": "VEC3",
      "count": 80,
      "min": [
        5,
        1,
        4
      ],
      "max": [
        6,
        9,
        5
      ]
    },
    {
      "bufferView": 9,
      "componentType": 5126,
      "type": "VEC3",
      "byteOffset": 12,
      "count": 80
    },
    {
      "bufferView": 9,
      "componentType": 5126,
      "type": "VEC2",
      "byteOffset": 24,
      "count": 80
    },
    {
      "bufferView": 10,
      "componentType": 5125,
      "type": "SCALAR",
      "count": 204
    },
    {
      "bufferView": 11,
      "componentType": 5126,
      "type": "VEC3",
      "count": 120,
      "min": [
        -9,
        1,
        0
      ],
      "max": [
        15,
        12,
        3
      ]
    },
    {
      "bufferView": 11,
      "componentType": 5126,
      "type": "VEC3",
      "byteOffset": 12,
      "count": 120
    },
    {
      "bufferView": 11,
      "componentType": 5126,
      "type": "VEC2",
      "byteOffset": 24,
      "count": 120
    },
    {
      "bufferView": 12,
      "componentType": 5125,
      "type": "SCALAR",
      "count": 216
    },
    {
      "bufferView": 13,
      "componentType": 5126,
      "type": "VEC3",
      "count": 64,
      "min": [
        8,
        -3,
        4
      ],
      "max": [
        11,
        0,
        5
      ]
    },
    {
      "bufferView": 13,
      "componentType": 5126,
      "type": "VEC3",
      "byteOffset": 12,
      "count": 64
    },
    {
      "bufferView": 13,
      "componentType": 5126,
      "type": "VEC2",
      "byteOffset": 24,
      "count": 64
    },
    {
      "bufferView": 14,
      "componentType": 5125,
      "type": "SCALAR",
      "count": 120
    },
    {
      "bufferView": 15,
      "componentType": 5126,
      "type": "VEC3",
      "count": 188,
      "min": [
        -7,
        11,
        1
      ],
      "max": [
        13,
        13,
        2
      ]
    },
    {
      "bufferView": 15,
      "componentType": 5126,
      "type": "VEC3",
      "byteOffset": 12,
      "count": 188
    },
    {
      "bufferView": 15,
      "componentType": 5126,
      "type": "VEC2",
      "byteOffset": 24,
      "count": 188
    },
    {
      "bufferView": 16,
      "componentType": 5125,
      "type": "SCALAR",
      "count": 516
    },
    {
      "bufferView": 17,
      "byteOffset": 0,
      "componentType": 5126,
      "count": 1778,
      "type": "VEC2"
    },
    {
      "bufferView": 18,
      "byteOffset": 0,
      "componentType": 5126,
      "count": 120,
      "type": "VEC2"
    },
    {
      "bufferView": 19,
      "byteOffset": 0,
      "componentType": 5126,
      "count": 120,
      "type": "VEC2"
    },
    {
      "bufferView": 20,
      "byteOffset": 0,
      "componentType": 5126,
      "count": 120,
      "type": "VEC2"
    },
    {
      "bufferView": 21,
      "byteOffset": 0,
      "componentType": 5126,
      "count": 80,
      "type": "VEC2"
    },
    {
      "bufferView": 22,
      "byteOffset": 0,
      "componentType": 5126,
      "count": 120,
      "type": "VEC2"
    },
    {
      "bufferView": 23,
      "byteOffset": 0,
      "componentType": 5126,
      "count": 64,
      "type": "VEC2"
    },
    {
      "bufferView": 24,
      "byteOffset": 0,
      "componentType": 5126,
      "count": 188,
      "type": "VEC2"
    }
  ],
  "asset": {
    "generator": "goxel",
    "version": "2.0"
  },
  "bufferViews": [
    {
      "buffer": 0,
      "byteLength": 218
    },
    {
      "buffer": 1,
      "byteLength": 71120,
      "byteStride": 40
    },
    {
      "buffer": 2,
      "byteLength": 30816
    },
    {
      "buffer": 3,
      "byteLength": 4800,
      "byteStride": 40
    },
    {
      "buffer": 4,
      "byteLength": 720
    },
    {
      "buffer": 5,
      "byteLength": 4800,
      "byteStride": 40
    },
    {
      "buffer": 6,
      "byteLength": 720
    },
    {
      "buffer": 7,
      "byteLength": 4800,
      "byteStride": 40
    },
    {
      "buffer": 8,
      "byteLength": 720
    },
    {
      "buffer": 9,
      "byteLength": 3200,
      "byteStride": 40
    },
    {
      "buffer": 10,
      "byteLength": 816
    },
    {
      "buffer": 11,
      "byteLength": 4800,
      "byteStride": 40
    },
    {
      "buffer": 12,
      "byteLength": 864
    },
    {
      "buffer": 13,
      "byteLength": 2560,
      "byteStride": 40
    },
    {
      "buffer": 14,
      "byteLength": 480
    },
    {
      "buffer": 15,
      "byteLength": 7520,
      "byteStride": 40
    },
    {
      "buffer": 16,
      "byteLength": 2064
    },
    {
      "buffer": 0,
      "byteOffset": 220,
      "byteLength": 14224,
      "target": 34962
    },
    {
      "buffer": 0,
      "byteOffset": 14444,
      "byteLength": 960,
      "target": 34962
    },
    {
      "buffer": 0,
      "byteOffset": 15404,
      "byteLength": 960,
      "target": 34962
    },
    {
      "buffer": 0,
      "byteOffset": 16364,
      "byteLength": 960,
      "target": 34962
    },
    {
      "buffer": 0,
      "byteOffset": 17324,
      "byteLength": 640,
      "target": 34962
    },
    {
      "buffer": 0,
      "byteOffset": 17964,
      "byteLength": 960,
      "target": 34962
    },
    {
      "buffer": 0,
      "byteOffset": 18924,
      "byteLength": 512,
      "target": 34962
    },
    {
      "buffer": 0,
      "byteOffset": 19436,
      "byteLength": 1504,
      "target": 34962
    }
  ],
  "buffers": [
    {
      "uri": "data:application/octet-stream;base64,",
      "byteLength": 20940
    },
    {
      "uri": "data:application/octet-stream;base64,",
      "byteLength": 71120
    },
    {
      "uri": "data:application/octet-stream;base64,",
      "byteLength": 30816
    },
    {
      "uri": "data:application/octet-stream;base64,",
      "byteLength": 4800
    },
    {
      "uri": "data:application/octet-stream;base64,",
      "byteLength": 720
    },
    {
      "uri": "data:application/octet-stream;base64,",
      "byteLength": 4800
    },
    {
      "uri": "data:application/octet-stream;base64,",
      "byteLength": 720
    },
    {
      "uri": "data:application/octet-stream;base64,",
      "byteLength": 4800
    },
    {
      "uri": "data:application/octet-stream;base64,",
      "byteLength": 720
    },
    {
      "uri": "data:application/octet-stream;base64,",
      "byteLength": 3200
    },
    {
      "uri": "data:application/octet-stream;base64,",
      "byteLength": 816
    },
    {
      "uri": "data:application/octet-stream;base64,",
      "byteLength": 4800
    },
    {
      "uri": "data:application/octet-stream;base64,",
      "byteLength": 864
    },
    {
      "uri": "data:application/octet-stream;base64,",
      "byteLength": 2560
    },
    {
      "uri": "data:application/octet-stream;base64,",
      "byteLength": 480
    },
    {
      "uri": "data:application/octet-stream;base64,",
      "byteLength": 7520
    },
    {
      "uri": "data:application/octet-stream;base64,",
      "byteLength": 2064
    }
  ],
  "images": [
    {
      "bufferView": 0,
      "mimeType": "image/png"
    }
  ],
  "meshes": [
    {
      "primitives": [
        {
          "indices": 3,
          "material": 0,
          "attributes": {
            "POSITION": 0,
            "NORMAL": 1,
            "TEXCOORD_0": 32
          }
        }
      ]
    },
    {
      "primitives": [
        {
          "indices": 7,
          "material": 0,
          "attributes": {
            "POSITION": 4,
            "NORMAL": 5,
            "TEXCOORD_0": 33
          }
        }
      ]
    },
    {
      "primitives": [
        {
          "indices": 11,
          "material": 0,
          "attributes": {
            "POSITION": 8,
            "NORMAL": 9,
            "TEXCOORD_0": 34
          }
        }
      ]
    },
    {
      "primitives": [
        {
          "indices": 15,
          "material": 0,
          "attributes": {
            "POSITION": 12,
            "NORMAL": 13,
            "TEXCOORD_0": 35
          }
        }
      ]
    },
    {
      "primitives": [
        {
          "indices": 19,
          "material": 0,
          "attributes": {
            "POSITION": 16,
            "NORMAL": 17,
            "TEXCOORD_0": 36
          }
        }
      ]
    },
    {
      "primitives": [
        {
          "indices": 23,
          "material": 0,
          "attributes": {
            "POSITION": 20,
            "NORMAL": 21,
            "TEXCOORD_0": 37
          }
        }
      ]
    },
    {
      "primitives": [
        {
          "indices": 27,
          "material": 0,
          "attributes": {
            "POSITION": 24,
            "NORMAL": 25,
            "TEXCOORD_0": 38
          }
        }
      ]
    },
    {
      "primitives": [
        {
          "indices": 31,
          "material": 0,
          "attributes": {
            "POSITION": 28,
            "NORMAL": 29,
            "TEXCOORD_0": 39
          }
        }
      ]
    }
  ],
  "materials": [
    {
      "name": "Material.1",
      "pbrMetallicRoughness": {
        "baseColorTexture": {
          "index": 0
        },
        "metallicFactor": 0.200000003,
        "roughnessFactor": 0.5
      }
    }
  ],
  "nodes": [
    {
      "children": [
        1,
        2,
        3,
        4,
        5,
        6,
        7,
        8
      ],
      "matrix": [
        1,
        0,
        0,
        0,
        0,
        0,
        -1,
        0,
        0,
        1,
        0,
        0,
        0,
        0,
        0,
        1
      ]
    },
    {
      "mesh": 0,
      "name": "Layer.1"
    },
    {
      "mesh": 1,
      "name": "Layer.2"
    },
    {
      "mesh": 2,
      "name": "Layer.3"
    },
    {
      "mesh": 3,
      "name": "Layer.4"
    },
    {
      "mesh": 4,
      "name": "Layer.5"
    },
    {
      "mesh": 5,
      "name": "Layer.6"
    },
    {
      "mesh": 6,
      "name": "Layer.8"
    },
    {
      "mesh": 7,
      "name": "Layer.9"
    }
  ],
  "scenes": [
    {
      "nodes": [
        0
      ]
    }
  ],
  "textures": [
    {
      "source": 0
    }
  ]
}