# Goxel 0.15.1

v -12.000000 0.000000 12.000000
v -11.000000 0.000000 12.000000
v -11.000000 1.000000 12.000000
v -12.000000 1.000000 12.000000
v -12.000000 0.000000 11.000000
v -11.000000 0.000000 11.000000
v -11.000000 1.000000 11.000000
v -12.000000 1.000000 11.000000
v -10.000000 0.000000 12.000000
v -10.000000 1.000000 12.000000
v -10.000000 0.000000 11.000000
v -10.000000 1.000000 11.000000
v -9.000000 0.000000 12.000000
v -9.000000 1.000000 12.000000
v -9.000000 0.000000 11.000000
v -9.000000 1.000000 11.000000
v -8.000000 0.000000 12.000000
v -8.000000 1.000000 12.000000
v -8.000000 0.000000 11.000000
v -8.000000 1.000000 11.000000
v -7.000000 0.000000 12.000000
v -7.000000 1.000000 12.000000
v -7.000000 0.000000 11.000000
v -7.000000 1.000000 11.000000
v -6.000000 0.000000 12.000000
v -6.000000 1.000000 12.000000
v -6.000000 0.000000 11.000000
v -6.000000 1.000000 11.000000
v -5.000000 0.000000 12.000000
v -5.000000 1.000000 12.000000
v -5.000000 0.000000 11.000000
v -5.000000 1.000000 11.000000
v -4.000000 0.000000 12.000000
v -4.000000 1.000000 12.000000
v -4.000000 0.000000 11.000000
v -4.000000 1.000000 11.000000
v -3.000000 0.000000 12.000000
v -3.000000 1.000000 12.000000
v -3.000000 0.000000 11.000000
v -3.000000 1.000000 11.000000
v -2.000000 0.000000 12.000000
v -2.000000 1.000000 12.000000
v -2.000000 0.000000 11.000000
v -2.000000 1.000000 11.000000
v -1.000000 0.000000 12.000000
v -1.000000 1.000000 12.000000
v -1.000000 0.000000 11.000000
v -1.000000 1.000000 11.000000
v -12.000000 0.000000 10.000000
v -11.000000 0.000000 10.000000
v -11.000000 1.000000 10.000000
v -12.000000 1.000000 10.000000
v -12.000000 0.000000 9.000000
v -11.000000 0.000000 9.000000
v -11.000000 1.000000 9.000000
v -12.000000 1.000000 9.000000
v -12.000000 0.000000 8.000000
v -11.000000 0.000000 8.000000
v -11.000000 1.000000 8.000000
v -12.000000 1.000000 8.000000
v -12.000000 0.000000 7.000000
v -11.000000 0.000000 7.000000
v -11.000000 1.000000 7.000000
v -12.000000 1.000000 7.000000
v -12.000000 0.000000 6.000000
v -11.000000 0.000000 6.000000
v -11.000000 1.000000 6.000000
v -12.000000 1.000000 6.000000
v -12.000000 0.000000 5.000000
v -11.000000 0.000000 5.000000
v -11.000000 1.000000 5.000000
v -12.000000 1.000000 5.000000
v -11.000000 0.000000 4.000000
v -12.000000 0.000000 4.000000
v -12.000000 1.000000 4.000000
v -11.000000 1.000000 4.000000
v -10.000000 0.000000 5.000000
v -10.000000 1.000000 5.000000
v -10.000000 0.000000 4.000000
v -10.000000 1.000000 4.000000
v -9.000000 0.000000 5.000000
v -9.000000 1.000000 5.000000
v -9.000000 0.000000 4.000000
v -9.000000 1.000000 4.000000
v -8.000000 0.000000 5.000000
v -8.000000 1.000000 5.000000
v -8.000000 0.000000 4.000000
v -8.000000 1.000000 4.000000
v -7.000000 0.000000 5.000000
v -7.000000 1.000000 5.000000
v -7.000000 0.000000 4.000000
v -7.000000 1.000000 4.000000
v -6.000000 0.000000 5.000000
v -6.000000 1.000000 5.000000
v -6.000000 0.000000 4.000000
v -6.000000 1.000000 4.000000
v -5.000000 0.000000 5.000000
v -5.000000 1.000000 5.000000
v -5.000000 0.000000 4.000000
v -5.000000 1.000000 4.000000
v -4.000000 0.000000 5.000000
v -4.000000 1.000000 5.000000
v -4.000000 0.000000 4.000000
v -4.000000 1.000000 4.000000
v -3.000000 0.000000 5.000000
v -3.000000 1.000000 5.000000
v -3.000000 0.000000 4.000000
v -3.000000 1.000000 4.000000
v -2.000000 0.000000 5.000000
v -2.000000 1.000000 5.000000
v -2.000000 0.000000 4.000000
v -2.000000 1.000000 4.000000
v -1.000000 0.000000 5.000000
v -1.000000 1.000000 5.000000
v -1.000000 0.000000 4.000000
v -1.000000 1.000000 4.000000

vt 0.000000 0.000000
vt 0.090909 0.000000
vt 0.090909 1.000000
vt 0.000000 1.000000
vt 0.000000 1.000000
vt 0.000000 0.875000
vt 0.090909 0.875000
vt 0.090909 1.000000
vt 0.090909 1.000000
vt 0.090909 0.875000
vt 0.000000 0.875000
vt 0.000000 1.000000
vt 1.000000 0.000000
vt 1.000000 1.000000
vt 0.875000 1.000000
vt 0.875000 0.000000
vt 0.090909 0.000000
vt 0.181818 0.000000
vt 0.181818 1.000000
vt 0.090909 1.000000
vt 0.181818 0.000000
vt 0.090909 0.000000
vt 0.090909 1.000000
vt 0.181818 1.000000
vt 0.090909 1.000000
vt 0.090909 0.875000
vt 0.181818 0.875000
vt 0.181818 1.000000
vt 0.181818 1.000000
vt 0.181818 0.875000
vt 0.090909 0.875000
vt 0.090909 1.000000
vt 0.181818 0.000000
vt 0.272727 0.000000
vt 0.272727 1.000000
vt 0.181818 1.000000
vt 0.272727 0.000000
vt 0.181818 0.000000
vt 0.181818 1.000000
vt 0.272727 1.000000
vt 0.181818 1.000000
vt 0.181818 0.875000
vt 0.272727 0.875000
vt 0.272727 1.000000
vt 0.272727 1.000000
vt 0.272727 0.875000
vt 0.181818 0.875000
vt 0.181818 1.000000
vt 0.272727 0.000000
vt 0.363636 0.000000
vt 0.363636 1.000000
vt 0.272727 1.000000
vt 0.363636 0.000000
vt 0.272727 0.000000
vt 0.272727 1.000000
vt 0.363636 1.000000
vt 0.272727 1.000000
vt 0.272727 0.875000
vt 0.363636 0.875000
vt 0.363636 1.000000
vt 0.363636 1.000000
vt 0.363636 0.875000
vt 0.272727 0.875000
vt 0.272727 1.000000
vt 0.363636 0.000000
vt 0.454545 0.000000
vt 0.454545 1.000000
vt 0.363636 1.000000
vt 0.454545 0.000000
vt 0.363636 0.000000
vt 0.363636 1.000000
vt 0.454545 1.000000
vt 0.363636 1.000000
vt 0.363636 0.875000
vt 0.454545 0.875000
vt 0.454545 1.000000
vt 0.454545 1.000000
vt 0.454545 0.875000
vt 0.363636 0.875000
vt 0.363636 1.000000
vt 0.454545 0.000000
vt 0.545455 0.000000
vt 0.545455 1.000000
vt 0.454545 1.000000
vt 0.545455 0.000000
vt 0.454545 0.000000
vt 0.454545 1.000000
vt 0.545455 1.000000
vt 0.454545 1.000000
vt 0.454545 0.875000
vt 0.545455 0.875000
vt 0.545455 1.000000
vt 0.545455 1.000000
vt 0.545455 0.875000
vt 0.454545 0.875000
vt 0.454545 1.000000
vt 0.545455 0.000000
vt 0.636364 0.000000
vt 0.636364 1.000000
vt 0.545455 1.000000
vt 0.636364 0.000000
vt 0.545455 0.000000
vt 0.545455 1.000000
vt 0.636364 1.000000
vt 0.545455 1.000000
vt 0.545455 0.875000
vt 0.636364 0.875000
vt 0.636364 1.000000
vt 0.636364 1.000000
vt 0.636364 0.875000
vt 0.545455 0.875000
vt 0.545455 1.000000
vt 0.636364 0.000000
vt 0.727273 0.000000
vt 0.727273 1.000000
vt 0.636364 1.000000
vt 0.727273 0.000000
vt 0.636364 0.000000
vt 0.636364 1.000000
vt 0.727273 1.000000
vt 0.636364 1.000000
vt 0.636364 0.875000
vt 0.727273 0.875000
vt 0.727273 1.000000
vt 0.727273 1.000000
vt 0.727273 0.875000
vt 0.636364 0.875000
vt 0.636364 1.000000
vt 0.727273 0.000000
vt 0.818182 0.000000
vt 0.818182 1.000000
vt 0.727273 1.000000
vt 0.818182 0.000000
vt 0.727273 0.000000
vt 0.727273 1.000000
vt 0.818182 1.000000
vt 0.727273 1.000000
vt 0.727273 0.875000
vt 0.818182 0.875000
vt 0.818182 1.000000
vt 0.818182 1.000000
vt 0.818182 0.875000
vt 0.727273 0.875000
vt 0.727273 1.000000
vt 0.818182 0.000000
vt 0.909091 0.000000
vt 0.909091 1.000000
vt 0.818182 1.000000
vt 0.909091 0.000000
vt 0.818182 0.000000
vt 0.818182 1.000000
vt 0.909091 1.000000
vt 0.818182 1.000000
vt 0.818182 0.875000
vt 0.909091 0.875000
vt 0.909091 1.000000
vt 0.909091 1.000000
vt 0.909091 0.875000
vt 0.818182 0.875000
vt 0.818182 1.000000
vt 0.909091 0.000000
vt 1.000000 0.000000
vt 1.000000 1.000000
vt 0.909091 1.000000
vt 1.000000 0.000000
vt 0.909091 0.000000
vt 0.909091 1.000000
vt 1.000000 1.000000
vt 0.909091 1.000000
vt 0.909091 0.875000
vt 1.000000 0.875000
vt 1.000000 1.000000
vt 1.000000 1.000000
vt 1.000000 0.875000
vt 0.909091 0.875000
vt 0.909091 1.000000
vt 1.000000 0.000000
vt 0.875000 0.000000
vt 0.875000 1.000000
vt 1.000000 1.000000
vt 0.000000 0.875000
vt 0.000000 0.750000
vt 0.090909 0.750000
vt 0.090909 0.875000
vt 0.090909 0.875000
vt 0.090909 0.750000
vt 0.000000 0.750000
vt 0.000000 0.875000
vt 0.875000 0.000000
vt 0.750000 0.000000
vt 0.750000 1.000000
vt 0.875000 1.000000
vt 0.875000 0.000000
vt 0.875000 1.000000
vt 0.750000 1.000000
vt 0.750000 0.000000
vt 0.000000 0.750000
vt 0.000000 0.625000
vt 0.090909 0.625000
vt 0.090909 0.750000
vt 0.090909 0.750000
vt 0.090909 0.625000
vt 0.000000 0.625000
vt 0.000000 0.750000
vt 0.750000 0.000000
vt 0.625000 0.000000
vt 0.625000 1.000000
vt 0.750000 1.000000
vt 0.750000 0.000000
vt 0.750000 1.000000
vt 0.625000 1.000000
vt 0.625000 0.000000
vt 0.000000 0.625000
vt 0.000000 0.500000
vt 0.090909 0.500000
vt 0.090909 0.625000
vt 0.090909 0.625000
vt 0.090909 0.500000
vt 0.000000 0.500000
vt 0.000000 0.625000
vt 0.625000 0.000000
vt 0.500000 0.000000
vt 0.500000 1.000000
vt 0.625000 1.000000
vt 0.625000 0.000000
vt 0.625000 1.000000
vt 0.500000 1.000000
vt 0.500000 0.000000
vt 0.000000 0.500000
vt 0.000000 0.375000
vt 0.090909 0.375000
vt 0.090909 0.500000
vt 0.090909 0.500000
vt 0.090909 0.375000
vt 0.000000 0.375000
vt 0.000000 0.500000
vt 0.500000 0.000000
vt 0.375000 0.000000
vt 0.375000 1.000000
vt 0.500000 1.000000
vt 0.500000 0.000000
vt 0.500000 1.000000
vt 0.375000 1.000000
vt 0.375000 0.000000
vt 0.000000 0.375000
vt 0.000000 0.250000
vt 0.090909 0.250000
vt 0.090909 0.375000
vt 0.090909 0.375000
vt 0.090909 0.250000
vt 0.000000 0.250000
vt 0.000000 0.375000
vt 0.375000 0.000000
vt 0.250000 0.000000
vt 0.250000 1.000000
vt 0.375000 1.000000
vt 0.375000 0.000000
vt 0.375000 1.000000
vt 0.250000 1.000000
vt 0.250000 0.000000
vt 0.000000 0.250000
vt 0.000000 0.125000
vt 0.090909 0.125000
vt 0.090909 0.250000
vt 0.090909 0.250000
vt 0.090909 0.125000
vt 0.000000 0.125000
vt 0.000000 0.250000
vt 0.250000 0.000000
vt 0.125000 0.000000
vt 0.125000 1.000000
vt 0.250000 1.000000
vt 0.250000 0.000000
vt 0.250000 1.000000
vt 0.125000 1.000000
vt 0.125000 0.000000
vt 0.090909 0.000000
vt 0.000000 0.000000
vt 0.000000 1.000000
vt 0.090909 1.000000
vt 0.000000 0.125000
vt 0.000000 0.000000
vt 0.090909 0.000000
vt 0.090909 0.125000
vt 0.090909 0.125000
vt 0.090909 0.000000
vt 0.000000 0.000000
vt 0.000000 0.125000
vt 0.125000 0.000000
vt 0.125000 1.000000
vt 0.000000 1.000000
vt 0.000000 0.000000
vt 0.090909 0.000000
vt 0.181818 0.000000
vt 0.181818 1.000000
vt 0.090909 1.000000
vt 0.181818 0.000000
vt 0.090909 0.000000
vt 0.090909 1.000000
vt 0.181818 1.000000
vt 0.090909 0.125000
vt 0.090909 0.000000
vt 0.181818 0.000000
vt 0.181818 0.125000
vt 0.181818 0.125000
vt 0.181818 0.000000
vt 0.090909 0.000000
vt 0.090909 0.125000
vt 0.181818 0.000000
vt 0.272727 0.000000
vt 0.272727 1.000000
vt 0.181818 1.000000
vt 0.272727 0.000000
vt 0.181818 0.000000
vt 0.181818 1.000000
vt 0.272727 1.000000
vt 0.181818 0.125000
vt 0.181818 0.000000
vt 0.272727 0.000000
vt 0.272727 0.125000
vt 0.272727 0.125000
vt 0.272727 0.000000
vt 0.181818 0.000000
vt 0.181818 0.125000
vt 0.272727 0.000000
vt 0.363636 0.000000
vt 0.363636 1.000000
vt 0.272727 1.000000
vt 0.363636 0.000000
vt 0.272727 0.000000
vt 0.272727 1.000000
vt 0.363636 1.000000
vt 0.272727 0.125000
vt 0.272727 0.000000
vt 0.363636 0.000000
vt 0.363636 0.125000
vt 0.363636 0.125000
vt 0.363636 0.000000
vt 0.272727 0.000000
vt 0.272727 0.125000
vt 0.363636 0.000000
vt 0.454545 0.000000
vt 0.454545 1.000000
vt 0.363636 1.000000
vt 0.454545 0.000000
vt 0.363636 0.000000
vt 0.363636 1.000000
vt 0.454545 1.000000
vt 0.363636 0.125000
vt 0.363636 0.000000
vt 0.454545 0.000000
vt 0.454545 0.125000
vt 0.454545 0.125000
vt 0.454545 0.000000
vt 0.363636 0.000000
vt 0.363636 0.125000
vt 0.454545 0.000000
vt 0.545455 0.000000
vt 0.545455 1.000000
vt 0.454545 1.000000
vt 0.545455 0.000000
vt 0.454545 0.000000
vt 0.454545 1.000000
vt 0.545455 1.000000
vt 0.454545 0.125000
vt 0.454545 0.000000
vt 0.545455 0.000000
vt 0.545455 0.125000
vt 0.545455 0.125000
vt 0.545455 0.000000
vt 0.454545 0.000000
vt 0.454545 0.125000
vt 0.545455 0.000000
vt 0.636364 0.000000
vt 0.636364 1.000000
vt 0.545455 1.000000
vt 0.636364 0.000000
vt 0.545455 0.000000
vt 0.545455 1.000000
vt 0.636364 1.000000
vt 0.545455 0.125000
vt 0.545455 0.000000
vt 0.636364 0.000000
vt 0.636364 0.125000
vt 0.636364 0.125000
vt 0.636364 0.000000
vt 0.545455 0.000000
vt 0.545455 0.125000
vt 0.636364 0.000000
vt 0.727273 0.000000
vt 0.727273 1.000000
vt 0.636364 1.000000
vt 0.727273 0.000000
vt 0.636364 0.000000
vt 0.636364 1.000000
vt 0.727273 1.000000
vt 0.636364 0.125000
vt 0.636364 0.000000
vt 0.727273 0.000000
vt 0.727273 0.125000
vt 0.727273 0.125000
vt 0.727273 0.000000
vt 0.636364 0.000000
vt 0.636364 0.125000
vt 0.727273 0.000000
vt 0.818182 0.000000
vt 0.818182 1.000000
vt 0.727273 1.000000
vt 0.818182 0.000000
vt 0.727273 0.000000
vt 0.727273 1.000000
vt 0.818182 1.000000
vt 0.727273 0.125000
vt 0.727273 0.000000
vt 0.818182 0.000000
vt 0.818182 0.125000
vt 0.818182 0.125000
vt 0.818182 0.000000
vt 0.727273 0.000000
vt 0.727273 0.125000
vt 0.818182 0.000000
vt 0.909091 0.000000
vt 0.909091 1.000000
vt 0.818182 1.000000
vt 0.909091 0.000000
vt 0.818182 0.000000
vt 0.818182 1.000000
vt 0.909091 1.000000
vt 0.818182 0.125000
vt 0.818182 0.000000
vt 0.909091 0.000000
vt 0.909091 0.125000
vt 0.909091 0.125000
vt 0.909091 0.000000
vt 0.818182 0.000000
vt 0.818182 0.125000
vt 0.909091 0.000000
vt 1.000000 0.000000
vt 1.000000 1.000000
vt 0.909091 1.000000
vt 1.000000 0.000000
vt 0.909091 0.000000
vt 0.909091 1.000000
vt 1.000000 1.000000
vt 0.909091 0.125000
vt 0.909091 0.000000
vt 1.000000 0.000000
vt 1.000000 0.125000
vt 1.000000 0.125000
vt 1.000000 0.000000
vt 0.909091 0.000000
vt 0.909091 0.125000
vt 0.125000 0.000000
vt 0.000000 0.000000
vt 0.000000 1.000000
vt 0.125000 1.000000

vn 0.000000 0.000000 1.000000
vn 0.000000 -1.000000 -0.000000
vn 0.000000 1.000000 0.000000
vn -1.000000 0.000000 0.000000
vn 0.000000 0.000000 -1.000000
vn 1.000000 0.000000 0.000000

f 1/1/1 2/2/1 3/3/1 4/4/1
f 1/5/2 5/6/2 6/7/2 2/8/2
f 3/9/3 7/10/3 8/11/3 4/12/3
f 1/13/4 4/14/4 8/15/4 5/16/4
f 2/17/1 9/18/1 10/19/1 3/20/1
f 11/21/5 6/22/5 7/23/5 12/24/5
f 2/25/2 6/26/2 11/27/2 9/28/2
f 10/29/3 12/30/3 7/31/3 3/32/3
f 9/33/1 13/34/1 14/35/1 10/36/1
f 15/37/5 11/38/5 12/39/5 16/40/5
f 9/41/2 11/42/2 15/43/2 13/44/2
f 14/45/3 16/46/3 12/47/3 10/48/3
f 13/49/1 17/50/1 18/51/1 14/52/1
f 19/53/5 15/54/5 16/55/5 20/56/5
f 13/57/2 15/58/2 19/59/2 17/60/2
f 18/61/3 20/62/3 16/63/3 14/64/3
f 17/65/1 21/66/1 22/67/1 18/68/1
f 23/69/5 19/70/5 20/71/5 24/72/5
f 17/73/2 19/74/2 23/75/2 21/76/2
f 22/77/3 24/78/3 20/79/3 18/80/3
f 21/81/1 25/82/1 26/83/1 22/84/1
f 27/85/5 23/86/5 24/87/5 28/88/5
f 21/89/2 23/90/2 27/91/2 25/92/2
f 26/93/3 28/94/3 24/95/3 22/96/3
f 25/97/1 29/98/1 30/99/1 26/100/1
f 31/101/5 27/102/5 28/103/5 32/104/5
f 25/105/2 27/106/2 31/107/2 29/108/2
f 30/109/3 32/110/3 28/111/3 26/112/3
f 29/113/1 33/114/1 34/115/1 30/116/1
f 35/117/5 31/118/5 32/119/5 36/120/5
f 29/121/2 31/122/2 35/123/2 33/124/2
f 34/125/3 36/126/3 32/127/3 30/128/3
f 33/129/1 37/130/1 38/131/1 34/132/1
f 39/133/5 35/134/5 36/135/5 40/136/5
f 33/137/2 35/138/2 39/139/2 37/140/2
f 38/141/3 40/142/3 36/143/3 34/144/3
f 37/145/1 41/146/1 42/147/1 38/148/1
f 43/149/5 39/150/5 40/151/5 44/152/5
f 37/153/2 39/154/2 43/155/2 41/156/2
f 42/157/3 44/158/3 40/159/3 38/160/3
f 41/161/1 45/162/1 46/163/1 42/164/1
f 47/165/5 43/166/5 44/167/5 48/168/5
f 41/169/2 43/170/2 47/171/2 45/172/2
f 46/173/3 48/174/3 44/175/3 42/176/3
f 45/177/6 47/178/6 48/179/6 46/180/6
f 5/181/2 49/182/2 50/183/2 6/184/2
f 7/185/3 51/186/3 52/187/3 8/188/3
f 6/189/6 50/190/6 51/191/6 7/192/6
f 5/193/4 8/194/4 52/195/4 49/196/4
f 49/197/2 53/198/2 54/199/2 50/200/2
f 51/201/3 55/202/3 56/203/3 52/204/3
f 50/205/6 54/206/6 55/207/6 51/208/6
f 49/209/4 52/210/4 56/211/4 53/212/4
f 53/213/2 57/214/2 58/215/2 54/216/2
f 55/217/3 59/218/3 60/219/3 56/220/3
f 54/221/6 58/222/6 59/223/6 55/224/6
f 53/225/4 56/226/4 60/227/4 57/228/4
f 57/229/2 61/230/2 62/231/2 58/232/2
f 59/233/3 63/234/3 64/235/3 60/236/3
f 58/237/6 62/238/6 63/239/6 59/240/6
f 57/241/4 60/242/4 64/243/4 61/244/4
f 61/245/2 65/246/2 66/247/2 62/248/2
f 63/249/3 67/250/3 68/251/3 64/252/3
f 62/253/6 66/254/6 67/255/6 63/256/6
f 61/257/4 64/258/4 68/259/4 65/260/4
f 65/261/2 69/262/2 70/263/2 66/264/2
f 67/265/3 71/266/3 72/267/3 68/268/3
f 66/269/6 70/270/6 71/271/6 67/272/6
f 65/273/4 68/274/4 72/275/4 69/276/4
f 73/277/5 74/278/5 75/279/5 76/280/5
f 69/281/2 74/282/2 73/283/2 70/284/2
f 71/285/3 76/286/3 75/287/3 72/288/3
f 69/289/4 72/290/4 75/291/4 74/292/4
f 70/293/1 77/294/1 78/295/1 71/296/1
f 79/297/5 73/298/5 76/299/5 80/300/5
f 70/301/2 73/302/2 79/303/2 77/304/2
f 78/305/3 80/306/3 76/307/3 71/308/3
f 77/309/1 81/310/1 82/311/1 78/312/1
f 83/313/5 79/314/5 80/315/5 84/316/5
f 77/317/2 79/318/2 83/319/2 81/320/2
f 82/321/3 84/322/3 80/323/3 78/324/3
f 81/325/1 85/326/1 86/327/1 82/328/1
f 87/329/5 83/330/5 84/331/5 88/332/5
f 81/333/2 83/334/2 87/335/2 85/336/2
f 86/337/3 88/338/3 84/339/3 82/340/3
f 85/341/1 89/342/1 90/343/1 86/344/1
f 91/345/5 87/346/5 88/347/5 92/348/5
f 85/349/2 87/350/2 91/351/2 89/352/2
f 90/353/3 92/354/3 88/355/3 86/356/3
f 89/357/1 93/358/1 94/359/1 90/360/1
f 95/361/5 91/362/5 92/363/5 96/364/5
f 89/365/2 91/366/2 95/367/2 93/368/2
f 94/369/3 96/370/3 92/371/3 90/372/3
f 93/373/1 97/374/1 98/375/1 94/376/1
f 99/377/5 95/378/5 96/379/5 100/380/5
f 93/381/2 95/382/2 99/383/2 97/384/2
f 98/385/3 100/386/3 96/387/3 94/388/3
f 97/389/1 101/390/1 102/391/1 98/392/1
f 103/393/5 99/394/5 100/395/5 104/396/5
f 97/397/2 99/398/2 103/399/2 101/400/2
f 102/401/3 104/402/3 100/403/3 98/404/3
f 101/405/1 105/406/1 106/407/1 102/408/1
f 107/409/5 103/410/5 104/411/5 108/412/5
f 101/413/2 103/414/2 107/415/2 105/416/2
f 106/417/3 108/418/3 104/419/3 102/420/3
f 105/421/1 109/422/1 110/423/1 106/424/1
f 111/425/5 107/426/5 108/427/5 112/428/5
f 105/429/2 107/430/2 111/431/2 109/432/2
f 110/433/3 112/434/3 108/435/3 106/436/3
f 109/437/1 113/438/1 114/439/1 110/440/1
f 115/441/5 111/442/5 112/443/5 116/444/5
f 109/445/2 111/446/2 115/447/2 113/448/2
f 114/449/3 116/450/3 112/451/3 110/452/3
f 113/453/6 115/454/6 116/455/6 114/456/6
