{
  "accessors": [
    {
      "bufferView": 1,
      "componentType": 5126,
      "type": "VEC3",
      "count": 1044,
      "min": [
        57,
        32,
        1
      ],
      "max": [
        79,
        48,
        11
      ]
    },
    {
      "bufferView": 1,
      "componentType": 5126,
      "type": "VEC3",
      "byteOffset": 12,
      "count": 1044
    },
    {
      "bufferView": 1,
      "componentType": 5126,
      "type": "VEC2",
      "byteOffset": 24,
      "count": 1044
    },
    {
      "bufferView": 2,
      "componentType": 5125,
      "type": "SCALAR",
      "count": 4788
    },
    {
      "bufferView": 3,
      "componentType": 5126,
      "type": "VEC3",
      "count": 913,
      "min": [
        34,
        36,
        1
      ],
      "max": [
        46,
        48,
        11
      ]
    },
    {
      "bufferView": 3,
      "componentType": 5126,
      "type": "VEC3",
      "byteOffset": 12,
      "count": 913
    },
    {
      "bufferView": 3,
      "componentType": 5126,
      "type": "VEC2",
      "byteOffset": 24,
      "count": 913
    },
    {
      "bufferView": 4,
      "componentType": 5125,
      "type": "SCALAR",
      "count": 2868
    },
    {
      "bufferView": 5,
      "componentType": 5126,
      "type": "VEC3",
      "count": 2212,
      "min": [
        24,
        36,
        1
      ],
      "max": [
        56,
        48,
        11
      ]
    },
    {
      "bufferView": 5,
      "componentType": 5126,
      "type": "VEC3",
      "byteOffset": 12,
      "count": 2212
    },
    {
      "bufferView": 5,
      "componentType": 5126,
      "type": "VEC2",
      "byteOffset": 24,
      "count": 2212
    },
    {
      "bufferView": 6,
      "componentType": 5125,
      "type": "SCALAR",
      "count": 9024
    },
    {
      "bufferView": 7,
      "componentType": 5126,
      "type": "VEC3",
      "count": 1300,
      "min": [
        23,
        1,
        1
      ],
      "max": [
        24,
        48,
        11
      ]
    },
    {
      "bufferView": 7,
      "componentType": 5126,
      "type": "VEC3",
      "byteOffset": 12,
      "count": 1300
    },
    {
      "bufferView": 7,
      "componentType": 5126,
      "type": "VEC2",
      "byteOffset": 24,
      "count": 1300
    },
    {
      "bufferView": 8,
      "componentType": 5125,
      "type": "SCALAR",
      "count": 6180
    },
    {
      "bufferView": 9,
      "componentType": 5126,
      "type": "VEC3",
      "count": 1292,
      "min": [
        56,
        1,
        1
      ],
      "max": [
        57,
        47,
        11
      ]
    },
    {
      "bufferView": 9,
      "componentType": 5126,
      "type": "VEC3",
      "byteOffset": 12,
      "count": 1292
    },
    {
      "bufferView": 9,
      "componentType": 5126,
      "type": "VEC2",
      "byteOffset": 24,
      "count": 1292
    },
    {
      "bufferView": 10,
      "componentType": 5125,
      "type": "SCALAR",
      "count": 6012
    },
    {
      "bufferView": 11,
      "componentType": 5126,
      "type": "VEC3",
      "count": 676,
      "min": [
        1,
        32,
        1
      ],
      "max": [
        24,
        33,
        11
      ]
    },
    {
      "bufferView": 11,
      "componentType": 5126,
      "type": "VEC3",
      "byteOffset": 12,
      "count": 676
    },
    {
      "bufferView": 11,
      "componentType": 5126,
      "type": "VEC2",
      "byteOffset": 24,
      "count": 676
    },
    {
      "bufferView": 12,
      "componentType": 5125,
      "type": "SCALAR",
      "count": 3036
    },
    {
      "bufferView": 13,
      "componentType": 5126,
      "type": "VEC3",
      "count": 368,
      "min": [
        23,
        1,
        1
      ],
      "max": [
        24,
        46,
        2
      ]
    },
    {
      "bufferView": 13,
      "componentType": 5126,
      "type": "VEC3",
      "byteOffset": 12,
      "count": 368
    },
    {
      "bufferView": 13,
      "componentType": 5126,
      "type": "VEC2",
      "byteOffset": 24,
      "count": 368
    },
    {
      "bufferView": 14,
      "componentType": 5125,
      "type": "SCALAR",
      "count": 1032
    },
    {
      "bufferView": 15,
      "componentType": 5126,
      "type": "VEC3",
      "count": 2128,
      "min": [
        0,
        0,
        1
      ],
      "max": [
        80,
        1,
        11
      ]
    },
    {
      "bufferView": 15,
      "componentType": 5126,
      "type": "VEC3",
      "byteOffset": 12,
      "count": 2128
    },
    {
      "bufferView": 15,
      "componentType": 5126,
      "type": "VEC2",
      "byteOffset": 24,
      "count": 2128
    },
    {
      "bufferView": 16,
      "componentType": 5125,
      "type": "SCALAR",
      "count": 10380
    },
    {
      "bufferView": 17,
      "componentType": 5126,
      "type": "VEC3",
      "count": 2238,
      "min": [
        0,
        47,
        1
      ],
      "max": [
        80,
        48,
        11
      ]
    },
    {
      "bufferView": 17,
      "componentType": 5126,
      "type": "VEC3",
      "byteOffset": 12,
      "count": 2238
    },
    {
      "bufferView": 17,
      "componentType": 5126,
      "type": "VEC2",
      "byteOffset": 24,
      "count": 2238
    },
    {
      "bufferView": 18,
      "componentType": 5125,
      "type": "SCALAR",
      "count": 10476
    },
    {
      "bufferView": 19,
      "componentType": 5126,
      "type": "VEC3",
      "count": 1450,
      "min": [
        79,
        0,
        1
      ],
      "max": [
        80,
        48,
        11
      ]
    },
    {
      "bufferView": 19,
      "componentType": 5126,
      "type": "VEC3",
      "byteOffset": 12,
      "count": 1450
    },
    {
      "bufferView": 19,
      "componentType": 5126,
      "type": "VEC2",
      "byteOffset": 24,
      "count": 1450
    },
    {
      "bufferView": 20,
      "componentType": 5125,
      "type": "SCALAR",
      "count": 6456
    },
    {
      "bufferView": 21,
      "componentType": 5126,
      "type": "VEC3",
      "count": 1438,
      "min": [
        0,
        0,
        1
      ],
      "max": [
        1,
        48,
        11
      ]
    },
    {
      "bufferView": 21,
      "componentType": 5126,
      "type": "VEC3",
      "byteOffset": 12,
      "count": 1438
    },
    {
      "bufferView": 21,
      "componentType": 5126,
      "type": "VEC2",
      "byteOffset": 24,
      "count": 1438
    },
    {
      "bufferView": 22,
      "componentType": 5125,
      "type": "SCALAR",
      "count": 6156
    },
    {
      "bufferView": 23,
      "componentType": 5126,
      "type": "VEC3",
      "count": 8458,
      "min": [
        0,
        0,
        0
      ],
      "max": [
        80,
        48,
        1
      ]
    },
    {
      "bufferView": 23,
      "componentType": 5126,
      "type": "VEC3",
      "byteOffset": 12,
      "count": 8458
    },
    {
      "bufferView": 23,
      "componentType": 5126,
      "type": "VEC2",
      "byteOffset": 24,
      "count": 8458
    },
    {
      "bufferView": 24,
      "componentType": 5125,
      "type": "SCALAR",
      "count": 47616
    },
    {
      "bufferView": 25,
      "byteOffset": 0,
      "componentType": 5126,
      "count": 1044,
      "type": "VEC2"
    },
    {
      "bufferView": 26,
      "byteOffset": 0,
      "componentType": 5126,
      "count": 913,
      "type": "VEC2"
    },
    {
      "bufferView": 27,
      "byteOffset": 0,
      "componentType": 5126,
      "count": 2212,
      "type": "VEC2"
    },
    {
      "bufferView": 28,
      "byteOffset": 0,
      "componentType": 5126,
      "count": 1300,
      "type": "VEC2"
    },
    {
      "bufferView": 29,
      "byteOffset": 0,
      "componentType": 5126,
      "count": 1292,
      "type": "VEC2"
    },
    {
      "bufferView": 30,
      "byteOffset": 0,
      "componentType": 5126,
      "count": 676,
      "type": "VEC2"
    },
    {
      "bufferView": 31,
      "byteOffset": 0,
      "componentType": 5126,
      "count": 368,
      "type": "VEC2"
    },
    {
      "bufferView": 32,
      "byteOffset": 0,
      "componentType": 5126,
      "count": 2128,
      "type": "VEC2"
    },
    {
      "bufferView": 33,
      "byteOffset": 0,
      "componentType": 5126,
      "count": 2238,
      "type": "VEC2"
    },
    {
      "bufferView": 34,
      "byteOffset": 0,
      "componentType": 5126,
      "count": 1450,
      "type": "VEC2"
    },
    {
      "bufferView": 35,
      "byteOffset": 0,
      "componentType": 5126,
      "count": 1438,
      "type": "VEC2"
    },
    {
      "bufferView": 36,
      "byteOffset": 0,
      "componentType": 5126,
      "count": 8458,
      "type": "VEC2"
    }
  ],
  "asset": {
    "generator": "goxel",
    "version": "2.0"
  },
  "bufferViews": [
    {
      "buffer": 0,
      "byteLength": 231
    },
    {
      "buffer": 1,
      "byteLength": 41760,
      "byteStride": 40
    },
    {
      "buffer": 2,
      "byteLength": 19152
    },
    {
      "buffer": 3,
      "byteLength": 36520,
      "byteStride": 40
    },
    {
      "buffer": 4,
      "byteLength": 11472
    },
    {
      "buffer": 5,
      "byteLength": 88480,
      "byteStride": 40
    },
    {
      "buffer": 6,
      "byteLength": 36096
    },
    {
      "buffer": 7,
      "byteLength": 52000,
      "byteStride": 40
    },
    {
      "buffer": 8,
      "byteLength": 24720
    },
    {
      "buffer": 9,
      "byteLength": 51680,
      "byteStride": 40
    },
    {
      "buffer": 10,
      "byteLength": 24048
    },
    {
      "buffer": 11,
      "byteLength": 27040,
      "byteStride": 40
    },
    {
      "buffer": 12,
      "byteLength": 12144
    },
    {
      "buffer": 13,
      "byteLength": 14720,
      "byteStride": 40
    },
    {
      "buffer": 14,
      "byteLength": 4128
    },
    {
      "buffer": 15,
      "byteLength": 85120,
      "byteStride": 40
    },
    {
      "buffer": 16,
      "byteLength": 41520
    },
    {
      "buffer": 17,
      "byteLength": 89520,
      "byteStride": 40
    },
    {
      "buffer": 18,
      "byteLength": 41904
    },
    {
      "buffer": 19,
      "byteLength": 58000,
      "byteStride": 40
    },
    {
      "buffer": 20,
      "byteLength": 25824
    },
    {
      "buffer": 21,
      "byteLength": 57520,
      "byteStride": 40
    },
    {
      "buffer": 22,
      "byteLength": 24624
    },
    {
      "buffer": 23,
      "byteLength": 338320,
      "byteStride": 40
    },
    {
      "buffer": 24,
      "byteLength": 190464
    },
    {
      "buffer": 0,
      "byteOffset": 232,
      "byteLength": 8352,
      "target": 34962
    },
    {
      "buffer": 0,
      "byteOffset": 8584,
      "byteLength": 7304,
      "target": 34962
    },
    {
      "buffer": 0,
      "byteOffset": 15888,
      "byteLength": 17696,
      "target": 34962
    },
    {
      "buffer": 0,
      "byteOffset": 33584,
      "byteLength": 10400,
      "target": 34962
    },
    {
      "buffer": 0,
      "byteOffset": 43984,
      "byteLength": 10336,
      "target": 34962
    },
    {
      "buffer": 0,
      "byteOffset": 54320,
      "byteLength": 5408,
      "target": 34962
    },
    {
      "buffer": 0,
      "byteOffset": 59728,
      "byteLength": 2944,
      "target": 34962
    },
    {
      "buffer": 0,
      "byteOffset": 62672,
      "byteLength": 17024,
      "target": 34962
    },
    {
      "buffer": 0,
      "byteOffset": 79696,
      "byteLength": 17904,
      "target": 34962
    },
    {
      "buffer": 0,
      "byteOffset": 97600,
      "byteLength": 11600,
      "target": 34962
    },
    {
      "buffer": 0,
      "byteOffset": 109200,
      "byteLength": 11504,
      "target": 34962
    },
    {
      "buffer": 0,
      "byteOffset": 120704,
      "byteLength": 67664,
      "target": 34962
    }
  ],
  "buffers": [
    {
      "uri": "data:application/octet-stream;base64,",
      "byteLength": 188368
    },
    {
      "uri": "data:application/octet-stream;base64,",
      "byteLength": 41760
    },
    {
      "uri": "data:application/octet-stream;base64,",
      "byteLength": 19152
    },
    {
      "uri": "data:application/octet-stream;base64,",
      "byteLength": 36520
    },
    {
      "uri": "data:application/octet-stream;base64,",
      "byteLength": 11472
    },
    {
      "uri": "data:application/octet-stream;base64,",
      "byteLength": 88480
    },
    {
      "uri": "data:application/octet-stream;base64,",
      "byteLength": 36096
    },
    {
      "uri": "data:application/octet-stream;base64,",
      "byteLength": 52000
    },
    {
      "uri": "data:application/octet-stream;base64,",
      "byteLength": 24720
    },
    {
      "uri": "data:application/octet-stream;base64,",
      "byteLength": 51680
    },
    {
      "uri": "data:application/octet-stream;base64,",
      "byteLength": 24048
    },
    {
      "uri": "data:application/octet-stream;base64,",
      "byteLength": 27040
    },
    {
      "uri": "data:application/octet-stream;base64,",
      "byteLength": 12144
    },
    {
      "uri": "data:application/octet-stream;base64,",
      "byteLength": 14720
    },
    {
      "uri": "data:application/octet-stream;base64,",
      "byteLength": 4128
    },
    {
      "uri": "data:application/octet-stream;base64,",
      "byteLength": 85120
    },
    {
      "uri": "data:application/octet-stream;base64,",
      "byteLength": 41520
    },
    {
      "uri": "data:application/octet-stream;base64,",
      "byteLength": 89520
    },
    {
      "uri": "data:application/octet-stream;base64,",
      "byteLength": 41904
    },
    {
      "uri": "data:application/octet-stream;base64,",
      "byteLength": 58000
    },
    {
      "uri": "data:application/octet-stream;base64,",
      "byteLength": 25824
    },
    {
      "uri": "data:application/octet-stream;base64,",
      "byteLength": 57520
    },
    {
      "uri": "data:application/octet-stream;base64,",
      "byteLength": 24624
    },
    {
      "uri": "data:application/octet-stream;base64,",
      "byteLength": 338320
    },
    {
      "uri": "data:application/octet-stream;base64,",
      "byteLength": 190464
    }
  ],
  "images": [
    {
      "bufferView": 0,
      "mimeType": "image/png"
    }
  ],
  "meshes": [
    {
      "primitives": [
        {
          "indices": 3,
          "material": 0,
          "attributes": {
            "POSITION": 0,
            "NORMAL": 1,
            "TEXCOORD_0": 48
          }
        }
      ]
    },
    {
      "primitives": [
        {
          "indices": 7,
          "material": 0,
          "attributes": {
            "POSITION": 4,
            "NORMAL": 5,
            "TEXCOORD_0": 49
          }
        }
      ]
    },
    {
      "primitives": [
        {
          "indices": 11,
          "material": 0,
          "attributes": {
            "POSITION": 8,
            "NORMAL": 9,
            "TEXCOORD_0": 50
          }
        }
      ]
    },
    {
      "primitives": [
        {
          "indices": 15,
          "material": 0,
          "attributes": {
            "POSITION": 12,
            "NORMAL": 13,
            "TEXCOORD_0": 51
          }
        }
      ]
    },
    {
      "primitives": [
        {
          "indices": 19,
          "material": 0,
          "attributes": {
            "POSITION": 16,
            "NORMAL": 17,
            "TEXCOORD_0": 52
          }
        }
      ]
    },
    {
      "primitives": [
        {
          "indices": 23,
          "material": 0,
          "attributes": {
            "POSITION": 20,
            "NORMAL": 21,
            "TEXCOORD_0": 53
          }
        }
      ]
    },
    {
      "primitives": [
        {
          "indices": 27,
          "material": 0,
          "attributes": {
            "POSITION": 24,
            "NORMAL": 25,
            "TEXCOORD_0": 54
          }
        }
      ]
    },
    {
      "primitives": [
        {
          "indices": 31,
          "material": 0,
          "attributes": {
            "POSITION": 28,
            "NORMAL": 29,
            "TEXCOORD_0": 55
          }
        }
      ]
    },
    {
      "primitives": [
        {
          "indices": 35,
          "material": 0,
          "attributes": {
            "POSITION": 32,
            "NORMAL": 33,
            "TEXCOORD_0": 56
          }
        }
      ]
    },
    {
      "primitives": [
        {
          "indices": 39,
          "material": 0,
          "attributes": {
            "POSITION": 36,
            "NORMAL": 37,
            "TEXCOORD_0": 57
          }
        }
      ]
    },
    {
      "primitives": [
        {
          "indices": 43,
          "material": 0,
          "attributes": {
            "POSITION": 40,
            "NORMAL": 41,
            "TEXCOORD_0": 58
          }
        }
      ]
    },
    {
      "primitives": [
        {
          "indices": 47,
          "material": 0,
          "attributes": {
            "POSITION": 44,
            "NORMAL": 45,
            "TEXCOORD_0": 59
          }
        }
      ]
    }
  ],
  "materials": [
    {
      "name": "Material.1",
      "pbrMetallicRoughness": {
        "baseColorTexture": {
          "index": 0
        },
        "metallicFactor": 0.200000003,
        "roughnessFactor": 0.5
      }
    }
  ],
  "nodes": [
    {
      "children": [
        1,
        2,
        3,
        4,
        5,
        6,
        7,
        8,
        9,
        10,
        11,
        12
      ],
      "matrix": [
        1,
        0,
        0,
        0,
        0,
        0,
        -1,
        0,
        0,
        1,
        0,
        0,
        0,
        0,
        0,
        1
      ]
    },
    {
      "mesh": 0,
      "name": "Layer.1"
    },
    {
      "mesh": 1,
      "name": "Layer.2"
    },
    {
      "mesh": 2,
      "name": "Layer.3"
    },
    {
      "mesh": 3,
      "name": "Layer.4"
    },
    {
      "mesh": 4,
      "name": "Layer.5"
    },
    {
      "mesh": 5,
      "name": "Layer.6"
    },
    {
      "mesh": 6,
      "name": "Layer.7"
    },
    {
      "mesh": 7,
      "name": "Layer.8"
    },
    {
      "mesh": 8,
      "name": "Layer.9"
    },
    {
      "mesh": 9,
      "name": "Layer.10"
    },
    {
      "mesh": 10,
      "name": "Layer.11"
    },
    {
      "mesh": 11,
      "name": "Layer.12"
    }
  ],
  "scenes": [
    {
      "nodes": [
        0
      ]
    }
  ],
  "textures": [
    {
      "source": 0
    }
  ]
}